<?xml version="1.0" encoding="utf-8"?>
<!-- Generator: Adobe Illustrator 21.1.0, SVG Export Plug-In . SVG Version: 6.00 Build 0)  -->
<svg version="1.1" id="Layer_1" xmlns="http://www.w3.org/2000/svg" xmlns:xlink="http://www.w3.org/1999/xlink" x="0px" y="0px"
	 viewBox="0 0 33 34" style="enable-background:new 0 0 33 34;" xml:space="preserve">
<g>
	<path d="M10.4,4h0.1v0.1l-0.3,0.4l0,0.1l0.4,0c0.1-0.4,0.2-0.6,0.4-0.6h0v0.1l-0.2,0.6l0.2,0c0-0.2,0.1-0.3,0.2-0.5
		c0.1,0.1,0.3,0.1,0.3,0.2c0,0.1-0.1,0.2-0.2,0.2h-0.1c0.1,0.4,0.2,0.5,0.3,0.5C11.8,5,11.9,4.8,12,4.8C12.1,4.9,12.3,5,12.3,5
		l0,0.2L12,5.5l0,0.4l0.5-0.3l0.2,0.2l0-0.2l0.4,0l0.2,0.2c0-0.1,0-0.1,0.1-0.1l-0.1,0.7h0.1c0-0.2,0.1-0.3,0.2-0.3h0L14,6.2
		c-0.2,0-0.3,0.2-0.4,0.6h0c0.1,0,0.2-0.2,0.3-0.5H14l0.2,0.2c-0.3,0.4-0.4,0.8-0.5,1c0.1,0,0.2,0.1,0.2,0.2v0
		c-0.3,0.1-0.5,0.2-0.5,0.3l0.1,0.2c-0.5,1.5-0.9,2.2-1,2.2v0.1c0.5,0.1,0.8,0.3,1,0.5c0-0.1,0.1-0.2,0.2-0.2h0l0.4,0.3
		c0-0.2,0.4-0.3,1.3-0.4c0-0.1,0-0.1,0.1-0.1c0,0.1,0,0.1,0.1,0.1c0-0.1,0-0.1,0.1-0.1h0c0,0.1,0,0.1,0.1,0.1c0-0.1,0.1-0.2,0.2-0.2
		h0l0.5,0.1l0,0.2h0.1l0.4-0.2v0c0,0.1,0,0.1,0.1,0.1c0-0.4,0.4-0.7,1-0.7c0.1,0,0.2,0,0.3,0c0-0.1,0.1-0.1,0.3-0.1H19
		c0.2,0,0.8,0.3,1.8,0.9c0.3,0,0.9,0.5,1.7,1.4l0.2,0l0,0.1l-0.2,0.6c0.3,0,0.5,0.1,0.5,0.3c-0.1,0-0.3,0.1-0.4,0.1h-0.1l0,0.5
		l0.2,0c0,0.1-0.2,0.2-0.6,0.3l0-0.2l-0.1,0l-0.8,0.6l-0.1,0l0.2-0.2l0-0.1c-0.4,0.3-0.7,0.4-0.8,0.4h0l0-0.2l0.2-0.2l-0.1,0
		c-0.1,0-0.4,0.2-0.9,0.6c-0.1,0-0.2-0.1-0.2-0.3v-0.1l-0.6,0.1v-0.1l-0.2,0.1h-0.1L17.8,14c-0.1,0-0.2,0.1-0.4,0.1h-0.1
		c0-0.3-0.1-0.5-0.3-0.5l0.2-0.2v0c0-0.1-0.1-0.3-0.3-0.4V13l0.1,0.3h0c-0.1,0-0.3,0.1-0.5,0.3c-0.1,0-0.1,0-0.1-0.1v0
		c-1.2,0.2-1.9,0.4-2.1,0.7v-0.1c0-0.1-0.1-0.2-0.2-0.2c0,0.1-0.1,0.2-0.1,0.2h0c-0.1-0.1-0.3-0.2-0.3-0.2c-0.1,0.3-0.4,0.4-0.6,0.4
		h-0.1l0.1,0.2c-0.7,0.1-1,0.4-1.1,0.8c-0.1,0-0.1,0.1-0.2,0.4l-0.1,0v-0.2h-0.1c-0.2,0-0.2,0.1-0.2,0.2h0.1
		c-0.2,0.5-0.4,0.7-0.6,0.7h0v0c0-0.1,0-0.1-0.1-0.1l-0.4,1.6l0.5,0.2c-0.2,0.3-0.3,0.5-0.3,0.7l0.1,0.6c-0.1,0.5-0.2,0.7-0.3,0.7v0
		c0,0.1,0,0.1,0.1,0.1c0,0.6-0.2,0.8-0.4,0.8h0l0,0.1c0.2,0,0.3,0.1,0.3,0.3v0h0c-0.1,0-0.1,0-0.1,0.1l0.4,0l-0.1,0.5H10l0.1-0.4
		l-0.1,0c0,0.2-0.1,0.5-0.2,0.9h0.1l-0.2,0.2l0,0.2l0.4,0v0.1l-0.6,0.1l0,0.2c0.1,0,0.1,0,0.1-0.1c0.3,0.2,0.5,0.3,0.5,0.4v0l-0.1,0
		l-0.2-0.2l0,0.5l0.1,0l0.2-0.1v0.1l-0.4,0.4l-0.1,0.7l0.1,0c0-0.4,0.1-0.6,0.3-0.6h0l0,0.2l-0.2,0.2c0.1,0,0.1,0,0.1,0.1
		c-0.1,0-0.1,0-0.2,0.1c0.1,0,0.1,0,0.1,0.1c-0.2,0-0.3,0.1-0.3,0.2v0.1h0.1l0-0.2c0.1,0,0.2,0.1,0.2,0.2v0h0
		c-0.1,0-0.2,0.2-0.4,0.6l0.1,2c-0.2,0-0.3,0.1-0.3,0.2c0.1,0,0.1,0,0.1,0.1h0c-0.2,0-0.4,0.2-0.4,0.7l0.2,0l0,0.4L8.9,30v0.1
		c0,0.2,0.1,0.3,0.2,0.3l-0.2,0.2v0.2c0.2,0,0.4,0.2,0.6,0.6l-0.2,0.2c0,0.1,0.1,0.4,0.4,0.9v0.1l-0.5,0.1c0-0.1,0-0.1-0.1-0.2
		l-0.3,0.3l-0.2-0.1c-0.1,0-0.2,0.1-0.3,0.1H8.2l-0.1-0.2l0.2-0.2L8,32.3v0.1c0.1,0,0.1,0,0.1,0.1v0l-0.5,0.3
		c-0.2-0.2-0.3-0.3-0.5-0.3l0-0.4l0.2,0v0c0-0.2-0.3-0.7-0.8-1.4h0.1c0.1,0,0.2-0.1,0.2-0.2l0-0.1h0c-0.1,0-0.2,0.1-0.2,0.3
		c-0.1,0-0.3-0.3-0.4-0.8l0-0.3l0.2,0.1C6.2,28.4,6,27.3,6,26.4c0-0.3,0-0.5,0-0.8l-0.2,0v1.4l-0.2,0l0,0.1c0.4,0.6,0.6,1.2,0.6,1.8
		c0,0.1,0,0.2,0,0.3v0.1H5.9v0c0-0.2-0.3-0.5-0.9-0.9l0.2-0.2l-0.4,0v-0.1c0,0,0.2,0,0.5-0.1l0-0.1v-0.1c0-0.1-0.1-0.2-0.2-0.2
		c0-0.1,0-0.1,0.1-0.1c0-0.1,0-0.3,0-0.5c0-0.2,0-0.5,0-0.7h0c0.1,0,0.1-0.1,0.2-0.3l-0.4,0L5.3,25c0-0.2-0.1-0.3-0.2-0.3
		c0.1-0.4,0.5-0.7,1-1h0.1l0,0.2l0.1,0l0.1-0.7l-0.8,0.4l-0.2-0.4l0.2-0.1c0,0.1,0,0.1,0.1,0.1c0-0.1,0.1-0.3,0.3-0.5l-0.1,0
		l-0.3,0.1c-0.1-0.3-0.2-0.5-0.2-0.7l0.2-0.6H5.4c0.3-0.7,0.4-1.1,0.5-1.1l-0.1-0.7c0-0.4,0.2-0.7,0.3-1.1c-0.1,0-0.1,0-0.1-0.1v0
		h0.2c0.1,0.1,0.3,0.2,0.3,0.2l-0.1-0.3l0.3-0.1l-0.1-0.2l0-0.1L7,17.8l-0.2-0.2l-0.2,0.2l0.1,0.6l-0.5,0l0-0.1c0-0.2,0.1-0.6,0.3-1
		c-0.1,0-0.1-0.1-0.1-0.2L7,17v-0.1c-0.2,0-0.3-0.1-0.3-0.3v-0.1c-0.5,0-0.8,0.1-0.8,0.3v0.1L6,17.2l-0.2,0.1H5.6l0-0.4l-0.4,0.2
		c0.1,0.1,0.1,0.2,0.1,0.3v0.1l0.1,0l0-0.2c0.1,0.1,0.3,0.1,0.6,0.2v0.2H6l-0.2-0.2l0,0.4l0.2,0l0,0.1c0,0.4-0.2,0.6-0.6,0.7v0
		c0-0.1,0-0.1-0.1-0.1l0.1-0.2L5.4,18H5.2l-0.1,0.5l-0.4-0.1c0-0.1,0-0.1,0.1-0.1h0l-0.1-0.3l0.1-0.5l0.3-0.4H4.9l0.3-0.4l0-0.4
		l-0.1-0.2c-0.1,0.1-0.6,0.1-1.5,0.1l-0.1-0.2l-0.6,0.1l-0.2,0l-1.7-0.5c0,0.1-0.1,0.1-0.1,0.1h0l0-0.1l0.3-0.3
		c-0.3,0-0.5-0.1-0.5-0.2l-0.2,0.1H0.2c0.1-0.4,0.2-0.6,0.2-0.9L0,13.5c0.1-0.1,0.2-0.1,0.3-0.1h0.1l-0.1-0.3
		c0.6-0.2,1.1-0.3,1.4-0.3h0.1v0.1l0.8-0.3c0.2,0,0.4,0.1,0.5,0.2c0.4-0.1,0.6-0.2,0.7-0.4L4,12.5l0.5,0.1c0.3-0.2,0.6-0.3,0.8-0.3
		h0.1c0.1,0.1,0.3,0.2,0.5,0.2c0.6-0.3,0.9-0.4,0.9-0.5c0-0.3,0.1-0.5,0.2-0.6c-0.1,0-0.1,0-0.1-0.1h0.1c0.1,0,0.2-0.1,0.2-0.2
		l-0.4-0.1c0-0.1,0.1-0.2,0.3-0.2l0.2,0.2l0.1-0.4L7,10.5H6.9L7,10h0.1c0.2,0,0.4-0.1,0.4-0.3c-0.1,0-0.1-0.1-0.1-0.2
		c0.2,0,0.7-1.4,1.7-4.2c0.2-0.3,0.3-0.5,0.4-0.5l0.1,0v0.2l0.1,0V5c-0.1,0-0.1,0-0.1-0.1v0h0.2L9.8,4.6C9.8,4.5,10,4.3,10.4,4z
		 M0.7,14.8v0.1L1,15v-0.1L0.7,14.8z M1.4,15.4c0,0.2,0.1,0.3,0.2,0.3l0-0.2L1.4,15.4z M3.8,12.8l0,0.2h0.1l0-0.2H3.8z M4.1,26.3
		h0.2l0.1,0.5l-0.3,0.1l-0.1-0.2L4.1,26.3z M4.4,24.4L4.9,25l-0.1,0.6l-0.4-0.1l0.2-0.6L4.4,25l-0.2-0.4C4.2,24.5,4.3,24.4,4.4,24.4
		z M4.2,27.5c0.2,0,0.3,0.4,0.4,1.2l-0.2,0C4.3,28,4.2,27.6,4.2,27.5z M5.4,19.4L5.4,19.4c0,0.3,0.1,0.6,0.2,0.7l-0.4,0.2v0.1
		c0,0.2,0.1,0.3,0.3,0.3l0,0.1l-0.2,0l-0.1,0.5c0,0.1,0,0.1,0.1,0.2c-0.3,1.1-0.5,1.7-0.7,1.7l-0.1-0.3c0.1-0.1,0.2-0.3,0.2-0.5
		l-0.4,0v-0.1l0.2,0l0-0.2L4.3,22c0.5-0.3,0.8-0.6,0.8-0.8l-0.6-0.1C4.5,21,4.6,21,4.8,21h0.1l0-0.1c-0.2,0-0.3-0.1-0.3-0.3v-0.1
		c0.1-0.1,0.2-0.3,0.2-0.3h0.1l-0.1,0.6l0.2,0v-0.1L5,20l0.3-0.1l-0.1-0.2C5.2,19.5,5.3,19.4,5.4,19.4L5.4,19.4z M4.3,27.1l0.2,0
		l0,0.2C4.4,27.4,4.3,27.3,4.3,27.1L4.3,27.1z M5,27.1l0,0.2c-0.1,0.1-0.2,0.3-0.2,0.3c-0.1,0-0.2-0.1-0.2-0.2v-0.1l0-0.2h0.1
		C4.8,27.2,4.9,27.1,5,27.1z M4.8,22.1l0,0.2h0.1l0-0.2H4.8z M4.8,19.5H5v0.1H4.8V19.5z M4.8,24.1l0.2,0v0.1l-0.2,0V24.1z M5,28.8
		l0.4,0c0.2,0.7,0.2,1.2,0.2,1.5v0.1l0,0.2C5.4,30.6,5.2,30,5,28.8z M5.3,28v0.1h0.2V28H5.3z M5.4,19.2h0.2c0,0.1,0,0.2,0.1,0.4
		l-0.1,0c-0.1,0-0.2-0.1-0.2-0.2V19.2z M5.5,18.2l0,0.4h0.1l0-0.4H5.5z M5.7,28l0,0.4h0.1l0-0.4H5.7z M5.7,29.4
		c0.1,0,0.4,0.6,0.7,1.7c-0.1,0-0.1,0-0.1,0.1c0.1,0,0.1,0,0.1,0.1H6.1l0-0.4l-0.2,0l0,0.2L5.7,31c0.1-0.2,0.2-0.3,0.3-0.3
		C5.8,30.1,5.7,29.7,5.7,29.4L5.7,29.4z M5.9,24.6l-0.1,0.6H6l0.2-0.6L5.9,24.6z M5.9,21.8c0,0.2,0.1,0.2,0.2,0.2l0-0.2H5.9z
		 M6,21.1v0.1h0.2v-0.1H6z M6.2,19.6L6.4,20c-0.2,0-0.3,0.1-0.3,0.2l0,0.1h0.2c0.1,0,0.2-0.1,0.2-0.3c0-0.1-0.1-0.2-0.1-0.3v-0.1
		L6.2,19.6z M6.2,22.6c0,0.1-0.1,0.2-0.2,0.3v0.1l0.1,0c0-0.1,0.1-0.2,0.2-0.4v-0.1H6.2z M6.1,24.1l0,0.2l0.1,0l0-0.2L6.1,24.1z
		 M6.2,16.2v0.2h0.1v-0.2H6.2z M6.3,24.7l0,0.2h0.1l0-0.2H6.3z M6.5,21.4l-0.2,0.2l0,0.4h0.1c0-0.2,0.1-0.3,0.3-0.3h0.1l0-0.1
		C6.7,21.5,6.6,21.5,6.5,21.4z M6.4,21.1v0.1l0.2,0v-0.1L6.4,21.1z M6.4,27.1l0,0.2h0.1l0-0.2H6.4z M6.4,27.6
		c0.1,0.2,0.2,0.8,0.3,1.9l0.2,0v-0.1c-0.2-0.2-0.2-0.6-0.2-1c0-0.2,0-0.3,0-0.5v-0.1c0-0.1,0.1-0.2,0.3-0.2h0.1l0-0.2
		C6.9,27.5,6.6,27.6,6.4,27.6L6.4,27.6z M6.4,29.8v0.2l0.1,0v-0.2L6.4,29.8z M6.5,19l-0.1,0.4h0.1L6.6,19H6.5z M6.4,27l0.2,0
		c0-0.4,0.1-0.6,0.2-0.6l-0.1-0.2c0.1-0.1,0.2-0.3,0.2-0.4C6.7,25.8,6.5,26.2,6.4,27z M6.7,19.9l-0.2,0.8l0,0.2l0.1,0
		c0-0.2,0.2-0.5,0.5-0.7c-0.1,0-0.2-0.1-0.2-0.3v-0.1H6.7z M6.6,24.2l0,0.5l0.3,0c0-0.1-0.1-0.2-0.1-0.4v-0.1L6.6,24.2z M6.6,23.8
		l0,0.2l0.2,0l0-0.2L6.6,23.8z M6.6,25l0,0.2l0.2,0v-0.1C6.8,25.1,6.8,25,6.6,25z M6.7,17.3v0.1l0.2,0v-0.1L6.7,17.3z M6.8,18.9
		l-0.1,0.7h0.1c0-0.4,0.1-0.6,0.2-0.7L6.8,18.9z M6.8,23.2l0,0.2l0.1,0l0-0.2H6.8z M6.8,22.8l0,0.2h0.1l0-0.2H6.8z M6.8,28v0.1
		l0.2,0V28L6.8,28z M6.9,22.3l0,0.4H7l0-0.4H6.9z M7.1,15.9L7,16.4l0.2,0c0-0.2,0.1-0.4,0.2-0.5L7.1,15.9z M7.4,19.7L7.5,20
		c-0.2,0-0.3,0.1-0.3,0.2v0.1l0.2-0.1l0.2,0c0,0.1-0.2,0.2-0.4,0.3c0-0.1,0-0.1-0.1-0.2c-0.1,0.7-0.1,1-0.2,1
		c0.1,0.2,0.1,0.3,0.1,0.4l0.1,0c0-0.1,0.1-0.3,0.3-0.5l0-0.1L7.4,21l0.2-0.1c0,0.1,0,0.1,0.1,0.1c0-0.1,0-0.1,0.1-0.1h0
		C7.9,21,7.9,21,8,21v-0.2l-0.5-0.2c0.2-0.2,0.3-0.4,0.3-0.5c-0.1-0.2-0.1-0.3-0.1-0.4L7.4,19.7z M7.1,29.5L7,29.9l0.1,0L7.1,29.5
		L7.1,29.5z M7.1,17.9l0,0.3l0.2,0c-0.1-0.2-0.1-0.3-0.1-0.4H7.1z M7,25.9v0.1c0,0.2,0.1,0.2,0.2,0.2v-0.2C7.2,26,7.2,25.9,7,25.9z
		 M7.1,30.3h0.2l0-0.2C7.2,30.1,7.1,30.2,7.1,30.3z M7.1,17.3v0.1h0.2v-0.1H7.1z M7.2,19.3l0,0.2h0.1l0-0.2L7.2,19.3z M7.2,18.4v0.2
		l0.1,0v-0.2L7.2,18.4z M7.3,30.8l0,0.2l0.1,0l0-0.2L7.3,30.8z M7.9,10.9c0,0.2-0.1,0.3-0.3,0.3H7.5v0.2L8,11.7v-0.1
		C8,11.4,8,11.3,8,11.1v-0.2H7.9z M7.5,31.3l0,0.2c0,0.2,0.1,0.3,0.2,0.3h0.1l0-0.1C7.8,31.6,7.7,31.5,7.5,31.3z M7.5,12.1l0,0.2
		l0.4,0v-0.1C7.8,12.3,7.7,12.2,7.5,12.1z M7.6,25.6l0,0.2l0.1,0l0-0.2L7.6,25.6z M7.6,30.7l0,0.1l0.2,0l0-0.1L7.6,30.7z M7.7,18.9
		c0,0.1-0.1,0.2-0.2,0.3c0.2,0,0.3,0.1,0.3,0.3v0.1l0.1,0c0-0.1,0.1-0.3,0.2-0.7c-0.1,0-0.1,0-0.1,0.1l-0.2-0.2H7.7z M7.6,21.1v0.1
		l0.2,0v-0.1L7.6,21.1z M7.7,32.9l0.2,0C8.1,33,8.2,33,8.3,33l0,0.4C8,33.1,7.9,33,7.7,33V32.9z M7.8,22.6v0.2H8l0.2-0.6h0
		C8,22.3,7.9,22.4,7.8,22.6z M7.9,17.3v0.1l0.2-0.1c0,0.1,0,0.1,0.1,0.1l0-0.4H8.1C8,17,7.9,17.1,7.9,17.3z M7.9,18l-0.1,0.5l0.1,0
		L8,18L7.9,18z M8.7,7.6l0.1,0.2c-0.1,0.6-0.2,0.9-0.5,1l0.1,0.3v0.1L8,9.1v0c0,0.1,0.1,0.3,0.4,0.5c0.1-0.9,0.3-1.3,0.6-1.3h0
		l0-0.1C9,8.3,8.9,8.2,8.9,8.1C9,8,9,7.9,9,7.7L8.8,7.6L8.7,7.6z M8.1,9.9l0,0.1c0,0.2,0.1,0.2,0.2,0.2l0.1,0l0-0.1
		C8.5,10,8.4,9.9,8.1,9.9L8.1,9.9z M8.1,21.4v0.1l0.2,0v-0.1L8.1,21.4z M8.1,21v0.2l0.1,0V21L8.1,21z M8.3,25.8l0,0.2
		c0.2,0,0.2-0.1,0.2-0.2H8.3z M8.3,26.7l0,0.1l0.2,0l0-0.1L8.3,26.7z M8.4,24.8l0,0.2h0.1l0-0.2H8.4z M8.4,19.3l0,0.4
		c0.2-0.1,0.3-0.1,0.4-0.1l0-0.1C8.7,19.5,8.6,19.4,8.4,19.3z M8.4,20.8v0.1l0.2,0v-0.1L8.4,20.8z M8.5,11.3v0.1l0.2,0l0-0.4
		C8.6,11.1,8.5,11.2,8.5,11.3z M8.7,5.5h0.2L8.9,5.9H8.6L8.7,5.5z M8.6,23.6l0,0.2l0.1,0l0-0.2L8.6,23.6z M8.7,15.6l0,0.2l0.1,0
		l0-0.2L8.7,15.6z M8.8,18.2l0.2,0L9,18C8.9,18,8.8,18.1,8.8,18.2z M8.8,28.2l0,0.2h0.1l0-0.2H8.8z M9.2,4.8l0,0.1
		C9.1,5.1,9.1,5.2,9,5.3l-0.2,0l0-0.1C8.8,5,9,4.9,9.2,4.8z M8.9,15.1l0,0.2H9l0-0.2H8.9z M9,16.9c0,0.2,0.1,0.2,0.2,0.2l0-0.2H9z
		 M9.2,24.2v0.2l0.1,0v-0.2L9.2,24.2z M9.3,9.4v0.1l0.2,0V9.4L9.3,9.4z M9.3,32.3v0.2h0.1l0-0.2H9.3z M9.4,16.3l0,0.2l0.1,0l0-0.2
		H9.4z M9.6,20.3h0.2c0.1,0,0.2-0.1,0.2-0.2H9.9C9.7,20.1,9.6,20.2,9.6,20.3z M9.8,19.4l0.2,0v-0.2C9.9,19.2,9.8,19.3,9.8,19.4z
		 M10.2,18.1l0,0.2l0.1,0l0-0.2L10.2,18.1z M10.3,20.9l0.2,0V21c-0.1,0.1-0.2,0.3-0.2,0.3h-0.1L10.3,20.9z M10.3,10.5l0,0.2h0.1
		l0-0.2H10.3z M10.7,16.7l0.2,0l-0.2,1.2l-0.2,0l0.1-0.6L10.7,16.7z M10.5,19.4c0.1,0,0.2,0.1,0.2,0.2v0h-0.2L10.5,19.4z M10.6,9.4
		l0,0.5l0.1,0c0-0.1,0.1-0.4,0.3-0.7l-0.1,0C10.7,9.2,10.6,9.3,10.6,9.4z M10.7,19.2l0.1,0l0,0.2l-0.1,0L10.7,19.2z M11.1,10.2
		c-0.2,0.5-0.3,0.8-0.3,0.8v0.2h0.1c0-0.4,0.1-0.7,0.3-1v-0.1H11.1z M10.8,9.1l0.2,0l0-0.4l0.2-0.6h0C11.1,8.1,10.9,8.4,10.8,9.1z
		 M11,14.8l0,0.2l0.1,0L11,14.8L11,14.8z M11.2,9.7l0,0.1l0.1,0l0.2-0.5C11.4,9.4,11.3,9.5,11.2,9.7z M11.5,14.5l0.6,0.2l0.2-0.2
		L12,14.3c0,0.1-0.1,0.2-0.2,0.2h-0.1v-0.2C11.6,14.3,11.5,14.3,11.5,14.5z M12,6.8c-0.2,0.4-0.3,0.6-0.3,0.6v0.1h0.1
		c0-0.1,0.1-0.3,0.3-0.6V6.8L12,6.8z M11.9,5v0.2h0.1V5H11.9z M12.3,6.1c0,0.1-0.1,0.4-0.3,0.6h0.2l0.2-0.5V6.1L12.3,6.1z M12.1,7.6
		l0.2,0V7.3C12.2,7.3,12.1,7.4,12.1,7.6z M12.5,11l0,0.1h0.2l0-0.1H12.5z M12.5,11.7h0.1c0.8-0.1,1.2-0.1,1.3-0.1v-0.1
		c-0.4,0-0.6-0.1-0.6-0.2C12.8,11.4,12.5,11.6,12.5,11.7z M12.7,6.3c0,0.1-0.1,0.2-0.2,0.3l0.2,0l0-0.4H12.7z M12.8,13.2l0,0.2h0.1
		l0-0.2H12.8z M13,5.8V6l0.1,0V5.8L13,5.8z M13,12.1v0.1l0.2,0v-0.1L13,12.1z M14.1,11.4l0,0.1h0.2l0-0.1H14.1z M14.1,13.6l0,0.1
		l0.2,0l0-0.1L14.1,13.6z M14.4,12l0,0.1h0.2l0-0.1L14.4,12z M14.9,11.2l0,0.2h0.1L14.9,11.2L14.9,11.2z M15,11.7v0.1h0.1
		c0.2-0.1,0.3-0.1,0.4-0.1v-0.1h-0.1C15.2,11.7,15.1,11.7,15,11.7z M15.4,11.3c0,0.2,0.1,0.3,0.2,0.3h0.1c0-0.2-0.1-0.3-0.2-0.3
		H15.4z M15.4,12.6v0.1l0.2,0v-0.1L15.4,12.6z M15.5,13.2v0.1l0.2,0v-0.1L15.5,13.2z M15.9,11.8l0,0.1c0.2,0,0.4,0.1,0.6,0.3l0-0.1
		c-0.1-0.1-0.1-0.3-0.1-0.5C16.2,11.7,16.1,11.8,15.9,11.8L15.9,11.8z M16.1,11.2l0,0.2h0.1l0-0.2H16.1z M16.9,10.3l0.1,0l0,0.4
		l-0.1,0L16.9,10.3z"/>
	<path d="M22.6,0.2h0.5c0,0.2,0.1,0.4,0.2,0.4c0.1,0,0.1,0,0.1-0.1l0.2,0.1l0.2-0.1c0.2,0.6,0.5,0.9,0.9,0.9l-0.1,0.5v0.1h0.1
		l0.1-0.5c0.6,0.1,0.9,0.3,0.9,0.6h0.1L26,1.5h0.2c0,0.4-0.2,0.8-0.6,1.2L25.8,3c-0.3,0.5-0.5,1-0.5,1.4v0.1h0.1l0.2-0.9h0.2
		c0,0.1-0.4,1.3-1.2,3.7v0.1h0.1c0-0.3,0.2-0.6,0.5-0.7h0.1v0.1c0,0.5-0.2,0.8-0.5,1L25,8.1c0,0.4-0.4,0.8-1.2,1.2L23.7,10l0.2,0.1
		c0-0.1,0-0.1,0.1-0.1v0.1c-0.1,0.3-0.1,0.5-0.2,0.5c0.2,0.3,0.2,0.5,0.2,0.7c-0.2,0.9-0.4,1.4-0.5,1.4l0.1,0.2
		c-0.3,0.6-0.4,0.9-0.5,0.9c0.1,0.3,0.1,0.7,0.1,1.1c1.1-0.8,2.1-1.2,2.9-1.4h0.4c0.1,0,0.1,0,0.1,0.1c0.3-0.2,0.6-0.2,0.9-0.2
		c2.5,0.7,3.7,1.6,3.7,2.7l0.2-0.1c0.2,0.3,0.2,0.5,0.2,0.6l-0.4-0.2v0.2c0.1,0.1,0.3,0.6,0.4,1.5l0.2-0.1v0.1l-0.2,0.4v0.9H32v-0.9
		h0.1c0,0.1,0.1,0.5,0.2,1.1c-0.1,1.4-0.3,2.1-0.5,2.1h-0.1l0.2-1.5v-0.2h-0.1c0,0.7-0.1,1-0.2,1l0.1,0.2l-1,2.7v0.2
		c0.1,0,0.3-0.2,0.6-0.6h0.1c-0.2,1.2-0.9,2.5-2.1,4v0.2l0.4-0.2h0.1v0.1c-0.2,0.2-0.4,0.4-0.4,0.5h-0.1l-0.2-0.1v0.5H29v-0.2h-0.1
		l-0.6,1.1c-0.4,0.3-0.8,0.6-1.2,0.9h-0.4v-0.2h-0.1v0.2c0.2,0,0.2,0.1,0.2,0.2c-0.5,0.5-1.7,1.2-3.5,2c0,0.1,0,0.1-0.1,0.1
		l-0.2-0.1c-1.2,0.4-2.3,0.6-3.1,0.6l0.1,0.2l-0.2,0.1l-1.2-0.4h-0.1c0,0.2-0.1,0.4-0.2,0.4H18c0-0.4-0.4-0.6-1.1-0.6v0.1
		c-1.1-0.3-1.6-0.7-1.6-1.2c-0.3,0-0.5-0.1-0.5-0.4v-0.1H15l-0.1-0.2v-0.2c0-0.1,0-0.1,0.1-0.1c-0.2-0.4-0.4-0.8-0.4-1.2v-0.4h0.2
		v-0.5l-0.2,0.1v-0.4c0-0.1,0-0.1,0.1-0.1L14.6,28l0.1-0.2c-0.1,0-0.1,0-0.1-0.1c0.1,0,0.2-0.2,0.4-0.5c-0.2,0-0.2-0.1-0.2-0.2v-0.7
		l0.1-0.7c0-0.1,0-0.1-0.1-0.1c0-0.6,0.5-2.9,1.4-7.1c0-0.4,0.2-0.8,0.5-1.2v-0.1l-0.1-0.2c0.2,0,0.5-1,1-3c0-0.2,0.4-1.4,1.1-3.7
		c0.4-1.7,0.8-2.6,1.1-2.7l-0.1-0.6l0.2-0.1l-0.1-0.2c0.3-0.2,0.9-1.4,1.6-3.6C21.9,1.3,22.3,0.6,22.6,0.2z M15.5,26
		c-0.2,1.9-0.4,3.1-0.4,3.4l-0.2-0.1v0.2h0.2v0.7h0.2v-1.4c0-0.2,0-0.4,0.1-0.5l-0.1-0.2c0.2-0.8,0.2-1.4,0.2-1.6V26H15.5z
		 M15.5,25.3c0.1,0.2,0.1,0.3,0.1,0.4c-0.1,0-0.1,0-0.1,0.1l0.2,0.1c0.1-0.6,0.1-0.9,0.1-1C15.7,24.9,15.6,25,15.5,25.3z M15.6,29.3
		v1.2h0.1v-1.2H15.6z M15.7,24.4v0.4h0.1v-0.4H15.7z M15.7,28.6V29h0.1v-0.4H15.7z M15.8,23.9v0.2H16l0.1-0.6
		C15.9,23.5,15.8,23.7,15.8,23.9z M15.8,27.6v0.2H16v-0.2H15.8z M16,22.9v0.5h0.1v-0.5H16z M16,26.3v0.2c0.2,0,0.2-0.1,0.2-0.2H16z
		 M16.2,21.7l-0.1,0.6v0.5h0.1c0.1-0.6,0.1-0.9,0.1-1v-0.1H16.2z M16.2,25.3v0.2h0.1v-0.2H16.2z M16.8,18.7c0,0.2-0.2,0.9-0.5,2.1
		h0.2c0.1-0.9,0.2-1.4,0.4-1.4l-0.1-0.2l0.1-0.2v-0.2H16.8z M16.6,25.4c0,0.2,0,0.4-0.1,0.5l0.2,0.1v-0.6H16.6z M16.8,28.6
		c0,0.2,0,0.2-0.1,0.2c0.1,0.1,0.1,0.4,0.1,0.7H17c0-0.3,0.1-0.6,0.2-0.9L17,28.6H16.8z M16.8,18.1v0.1h0.2v-0.1H16.8z M17.3,26.1
		c0,0.3-0.1,0.6-0.2,0.7l0.1,0.6h0.1v-0.1c-0.1-0.2-0.1-0.3-0.1-0.4c0.2,0,0.2-0.1,0.2-0.4v-0.5H17.3z M17.3,16.4v0.4h0.1v-0.4H17.3
		z M17.3,28.4v0.2h0.1v-0.2H17.3z M17.7,14.6c0,0.1-0.1,0.4-0.2,0.6l0.2,0.1l0.2-0.6L17.7,14.6z M18,16.4v0.2h0.1v-0.2H18z
		 M19.1,29.9v0.2h0.1v-0.2H19.1z M19.9,28c0,0.1,0,0.2-0.1,0.4c0.1,0.2,0.1,0.3,0.1,0.4l-0.2-0.1L19.5,29l0.1,0.7L19.5,30h0.4
		c0.1-1,0.3-1.6,0.5-2H19.9z M19.6,26.1v0.2h0.1v-0.2H19.6z M19.8,17.3v0.2h0.1v-0.2H19.8z M19.8,27l0.1,0.2v0.1
		c0,0.1,0,0.1-0.1,0.1c0.1,0.2,0.1,0.3,0.1,0.4h0.1V27H19.8z M19.9,26.5l0.2,0.1h0.1l-0.1-0.2v-0.1c0-0.5,0.2-0.7,0.5-0.7
		c-0.1-0.2-0.1-0.3-0.1-0.4C20.2,25.1,20,25.6,19.9,26.5z M24.3,17.6v-0.1l0.2-0.6h-0.1c-0.2,0.1-0.3,0.1-0.4,0.1
		c0-0.1,0-0.1-0.1-0.1c0,0.1-0.3,0.5-1,1v0.2h-0.2v-0.2h-0.1c-0.5,1.9-0.7,2.9-0.7,3c0,0.1-0.1,0.2-0.2,0.4c0,1.2-0.1,1.9-0.2,1.9
		h-0.1v0.4c-0.1,0.5-0.1,0.9-0.1,1.1h0.1v0.1l-0.6,0.2V25h0.1c0.2-0.1,0.3-0.1,0.4-0.1V25c-0.1,0.9-0.2,1.4-0.4,1.4l0.1,0.2
		c-0.2,0.2-0.3,0.8-0.5,1.7c0,0.1,0,0.1,0.1,0.1l-0.2,1.2c0.4,0,1.6-0.8,3.7-2.4c2.9-2.9,4.5-6.1,4.8-9.4c0-1.4-0.6-2.1-1.9-2.1
		C26.3,16,25.4,16.6,24.3,17.6z M20.3,23v0.2h0.1V23H20.3z M20.4,23.4l-0.1,0.2v0.6l0.2-0.1l-0.1-0.2c0-0.2,0.1-0.2,0.2-0.2
		c0,0.1,0,0.1,0.1,0.1l0.1-0.2v-0.1h-0.1l-0.2,0.1C20.6,23.5,20.5,23.4,20.4,23.4z M20.3,24.4v0.2c0.2,0,0.2-0.1,0.2-0.2H20.3z
		 M20.3,24.8V25h0.1v-0.2H20.3z M20.6,14.2h0.2l0.1-0.6C20.8,13.6,20.7,13.8,20.6,14.2z M20.6,22.7v0.1h0.4v-0.1H20.6z M21.1,19.9
		c0,0.5-0.1,0.9-0.4,1.4h0.2l0.1-0.9h0.1l0.2,0.1l0.1-0.2c-0.2,0-0.4-0.1-0.4-0.4H21.1z M20.7,21.9v0.4l0.5,0.1
		C21.1,22.2,21,22,20.7,21.9z M20.7,23.2v0.1c0.2,0,0.2-0.1,0.2-0.2v-0.1C20.8,22.9,20.7,23,20.7,23.2z M20.7,24.2v0.2h0.1v-0.2
		H20.7z M20.7,33.4h0.1v0.2h-0.1V33.4z M20.8,21.5v0.2h0.1v-0.2H20.8z M20.9,12.3v0.2h0.1v-0.2H20.9z M21.3,18.9
		c0,0.1-0.1,0.3-0.2,0.5l0.2,0.1c0-0.2,0.2-0.2,0.5-0.2v-0.4h-0.1l-0.2,0.1C21.4,19,21.4,18.9,21.3,18.9z M21.1,21.5v0.2h0.1v-0.2
		H21.1z M21.2,20.9v0.2h0.1v-0.2H21.2z M21.3,11.5v0.4h0.1v-0.4H21.3z M21.4,18.3v0.2h0.1v-0.2H21.4z M21.8,16.6v0.1h0.1l0.2-0.1
		c0,0.1,0,0.1,0.1,0.1c0-0.2,0-0.4,0.1-0.5h-0.1C22,16.3,21.8,16.4,21.8,16.6z M22.3,15.3c0-0.1,0-0.1-0.1-0.1v0.2
		c0.2,0,0.2,0.1,0.2,0.2h0.1l0.1-0.6L22.3,15.3z M22.9,12.2c0,0.2-0.1,0.5-0.2,0.9h0.1l0.2-0.1v0.2c0,0.2-0.1,0.2-0.2,0.2
		c0-0.1,0-0.1-0.1-0.1c0,0.1-0.1,0.5-0.2,1v0.4h0.1c0-0.3,0.1-0.7,0.2-1.1h0.1V14h0.1l0.4-1.2h-0.1l-0.2,0.1v-0.4l0.1-0.2H22.9z
		 M22.4,32.2v0.1h0.2v-0.1H22.4z M23.2,11.2l-0.1,0.9h0.6l-0.1-0.2c0.1-0.2,0.1-0.3,0.1-0.4l-0.2,0.1c-0.1-0.2-0.1-0.3-0.1-0.4H23.2
		z M23.7,10.2l-0.4,0.9l0.2,0.1h0.2v-0.1l-0.1-0.5l0.1-0.2v-0.1H23.7z M23.8,31.7v0.1h0.1c0.5-0.2,0.7-0.3,0.7-0.5h-0.1
		C24.2,31.6,24,31.7,23.8,31.7z M24.3,9.4v0.2h-0.2C24.1,9.4,24.2,9.4,24.3,9.4z M24.2,8.2v0.1h0.2V8.2H24.2z M24.7,5.3v0.2h0.1V5.3
		H24.7z M24.8,31.2v0.1H25v-0.1H24.8z M25.5,6.3h0.1c0,0.2-0.1,0.2-0.2,0.2h-0.1C25.3,6.3,25.4,6.3,25.5,6.3z M25.4,30.9V31h0.1
		c0.4-0.2,0.7-0.4,0.9-0.4v-0.2h-0.1C25.9,30.7,25.6,30.9,25.4,30.9z M26.2,2.5h0.2v0.2h-0.2V2.5z M28,28.3c0,0.1-0.2,0.4-0.6,0.7
		v0.1c0.1,0,0.4-0.2,0.7-0.7v-0.1H28z M28.4,28v0.1h0.1c0-0.2,0.2-0.4,0.5-0.7h-0.1C28.8,27.4,28.6,27.6,28.4,28z M30.4,25.3
		l-0.1,0.2L30,25.4h-0.1c0,0.2-0.2,0.7-0.7,1.4v0.1h0.2c0.2-0.4,0.4-0.6,0.5-0.6c0.4-0.6,0.6-0.9,0.7-0.9v-0.1H30.4z M29.1,27v0.1
		h0.2V27H29.1z M30.4,24.5v0.2h0.1v-0.2H30.4z M30.5,26.3h0.2v0.2h-0.2V26.3z M31.6,22.5c0.2,0.1,0.3,0.1,0.4,0.1
		c0,0.2-0.1,0.2-0.2,0.2c0-0.1,0-0.1-0.1-0.1V23h0.2v0.1c0,0.2-0.1,0.2-0.2,0.2c0-0.2-0.1-0.2-0.2-0.2v-0.2L31.6,22.5z M31.6,22h0.2
		v0.2h-0.2V22z M31.8,16.9H32c0,0.2,0.1,0.2,0.2,0.2v0.1c0,0.2-0.1,0.2-0.2,0.2C31.8,17.3,31.8,17.1,31.8,16.9z M31.9,19.7v0.2h0.2
		C32.1,19.8,32,19.7,31.9,19.7z M32.4,17.3h0.2v0.2C32.5,17.6,32.4,17.5,32.4,17.3z M32.4,20.7h0.2v0.2h-0.2V20.7z M32.8,19.4H33
		v0.1h-0.2V19.4z"/>
</g>
</svg>
